<svg width="34" height="35" viewBox="0 0 34 35" fill="none" xmlns="http://www.w3.org/2000/svg">
<path d="M9.9165 24.7785V19.1118" stroke="#F5F7F9" stroke-width="2.125" stroke-linecap="round"/>
<path d="M17 24.7785V10.6118" stroke="#F5F7F9" stroke-width="2.125" stroke-linecap="round"/>
<path d="M24.0835 24.7783V16.2783" stroke="#F5F7F9" stroke-width="2.125" stroke-linecap="round"/>
<path d="M3.5415 17.6951C3.5415 11.3508 3.5415 8.17868 5.51243 6.20774C7.48336 4.23682 10.6555 4.23682 16.9998 4.23682C23.3441 4.23682 26.5163 4.23682 28.4873 6.20774C30.4582 8.17868 30.4582 11.3508 30.4582 17.6951C30.4582 24.0394 30.4582 27.2116 28.4873 29.1826C26.5163 31.1535 23.3441 31.1535 16.9998 31.1535C10.6555 31.1535 7.48336 31.1535 5.51243 29.1826C3.5415 27.2116 3.5415 24.0394 3.5415 17.6951Z" stroke="#F5F7F9" stroke-width="2.125" stroke-linejoin="round"/>
</svg>
