<svg width="34" height="35" viewBox="0 0 34 35" fill="none" xmlns="http://www.w3.org/2000/svg">
<path d="M24.0833 31.8617C27.9954 31.8617 31.1667 28.6904 31.1667 24.7784C31.1667 20.8664 27.9954 17.6951 24.0833 17.6951C20.1713 17.6951 17 20.8664 17 24.7784C17 28.6904 20.1713 31.8617 24.0833 31.8617Z" stroke="#F5F7F9" stroke-width="2.125"/>
<path d="M10.6252 19.1117H9.06683C6.12841 19.1117 4.6592 19.1117 3.74635 18.1988C2.8335 17.286 2.8335 15.8168 2.8335 12.8783V9.76165C2.8335 6.82323 2.8335 5.35402 3.74635 4.44118C4.6592 3.52832 6.12841 3.52832 9.06683 3.52832H12.1835C15.1219 3.52832 16.5912 3.52832 17.5039 4.44118C18.4168 5.35402 18.4168 6.82323 18.4168 9.76165V11.32" stroke="#F5F7F9" stroke-width="2.125"/>
<path d="M17.0491 27.6118C13.0011 26.9327 9.9165 23.4121 9.9165 19.171C9.9165 14.4439 13.7486 10.6118 18.4757 10.6118C22.7168 10.6118 26.2374 13.6964 26.9165 17.7444" stroke="#F5F7F9" stroke-width="2.125"/>
</svg>
