<svg width="24" height="24" viewBox="0 0 24 24" fill="none" xmlns="http://www.w3.org/2000/svg">
<g id="briefcase-07">
<path id="Vector" d="M12 15V16.5" stroke="#FF5F0F" stroke-width="1.5" stroke-linecap="round" stroke-linejoin="round"/>
<path id="Vector_2" d="M2.99994 15C3.14926 17.9325 3.30566 19.4716 4.39806 20.4447C5.58268 21.5 7.43049 21.5 11.1261 21.5H12.8738C16.5694 21.5 18.4172 21.5 19.6018 20.4447C20.6942 19.4716 20.8506 17.9325 20.9999 15" stroke="#FF5F0F" stroke-width="1.5" stroke-linecap="round" stroke-linejoin="round"/>
<path id="Vector_3" d="M2.84718 10.4431C4.54648 13.6744 8.3792 15 12 15C15.6208 15 19.4535 13.6744 21.1528 10.4431C21.964 8.90056 21.3498 6 19.352 6H4.648C2.65023 6 2.03603 8.90056 2.84718 10.4431Z" stroke="#FF5F0F" stroke-width="1.5"/>
<path id="Vector_4" d="M15.9999 6L15.9116 5.69094C15.4716 4.15089 15.2516 3.38087 14.7278 2.94043C14.204 2.5 13.5083 2.5 12.1168 2.5H11.8829C10.4915 2.5 9.79575 2.5 9.27198 2.94043C8.7482 3.38087 8.52819 4.15089 8.08818 5.69094L7.99988 6" stroke="#FF5F0F" stroke-width="1.5"/>
</g>
</svg>
