<svg width="34" height="35" viewBox="0 0 34 35" fill="none" xmlns="http://www.w3.org/2000/svg">
<g id="code">
<path id="Vector" d="M11.3335 17.6951H11.3462M16.9939 17.6951H17.0065M22.6542 17.6951H22.6668" stroke="#F5F7F9" stroke-width="2.83333" stroke-linecap="round" stroke-linejoin="round"/>
<path id="Vector_2" d="M25.5 30.4451C27.2456 30.4451 28.6606 28.8141 28.6606 26.8023C28.6606 23.6179 28.5192 21.5008 30.7038 18.983C31.3209 18.2717 31.3209 17.1184 30.7038 16.4071C28.5192 13.8893 28.6606 11.7722 28.6606 8.58793C28.6606 6.57603 27.2456 4.94507 25.5 4.94507" stroke="#F5F7F9" stroke-width="2.125" stroke-linecap="round" stroke-linejoin="round"/>
<path id="Vector_3" d="M8.50016 30.4451C6.7546 30.4451 5.33954 28.8141 5.33954 26.8023C5.33954 23.6179 5.48092 21.5008 3.29636 18.983C2.67921 18.2717 2.67921 17.1184 3.29636 16.4071C5.43302 13.9445 5.33954 11.8016 5.33954 8.58793C5.33954 6.57603 6.7546 4.94507 8.50016 4.94507" stroke="#F5F7F9" stroke-width="2.125" stroke-linecap="round" stroke-linejoin="round"/>
</g>
</svg>
