<svg width="18" height="19" viewBox="0 0 18 19" fill="none" xmlns="http://www.w3.org/2000/svg">
<g id="SVG">
<g id="Group">
<path id="Vector" d="M15.375 4.34766H2.625C2.4841 4.34766 2.34898 4.40363 2.24935 4.50326C2.14972 4.60288 2.09375 4.73801 2.09375 4.87891V13.9102C2.09375 14.1919 2.20569 14.4622 2.40495 14.6615C2.60421 14.8607 2.87446 14.9727 3.15625 14.9727H14.8438C15.1255 14.9727 15.3958 14.8607 15.5951 14.6615C15.7943 14.4622 15.9062 14.1919 15.9062 13.9102V4.87891C15.9062 4.73801 15.8503 4.60288 15.7507 4.50326C15.651 4.40363 15.5159 4.34766 15.375 4.34766ZM7.05496 9.66016L3.15625 13.2335V6.08684L7.05496 9.66016ZM7.84121 10.3807L8.63809 11.1145C8.7361 11.2044 8.8643 11.2543 8.99734 11.2543C9.13039 11.2543 9.25859 11.2044 9.3566 11.1145L10.1535 10.3807L14.005 13.9102H3.99098L7.84121 10.3807ZM10.945 9.66016L14.8438 6.08617V13.2341L10.945 9.66016Z" fill="#F15533"/>
</g>
</g>
</svg>
