<svg width="17" height="19" viewBox="0 0 17 19" fill="none" xmlns="http://www.w3.org/2000/svg">
<g id="SVG">
<g id="Group">
<path id="Vector" d="M8.5 1.97266C6.95068 1.97441 5.46532 2.59066 4.36979 3.68619C3.27425 4.78173 2.65801 6.26709 2.65625 7.81641C2.65625 12.8168 7.96875 16.5933 8.1952 16.7514C8.28452 16.8139 8.39094 16.8475 8.5 16.8475C8.60906 16.8475 8.71548 16.8139 8.8048 16.7514C9.03125 16.5933 14.3438 12.8168 14.3438 7.81641C14.342 6.26709 13.7257 4.78173 12.6302 3.68619C11.5347 2.59066 10.0493 1.97441 8.5 1.97266ZM8.5 5.69141C8.92029 5.69141 9.33113 5.81604 9.68059 6.04953C10.03 6.28303 10.3024 6.61491 10.4632 7.0032C10.6241 7.3915 10.6662 7.81876 10.5842 8.23097C10.5022 8.64318 10.2998 9.02182 10.0026 9.31901C9.70541 9.61619 9.32678 9.81858 8.91457 9.90058C8.50236 9.98257 8.07509 9.94049 7.6868 9.77965C7.2985 9.61881 6.96663 9.34645 6.73313 8.99699C6.49963 8.64754 6.375 8.23669 6.375 7.81641C6.375 7.25282 6.59888 6.71232 6.9974 6.3138C7.39591 5.91529 7.93641 5.69141 8.5 5.69141Z" fill="#F15533"/>
</g>
</g>
</svg>
