<svg width="17" height="19" viewBox="0 0 17 19" fill="none" xmlns="http://www.w3.org/2000/svg">
<g id="SVG">
<g id="Group">
<path id="Vector" d="M15.3983 12.7864C15.2799 13.6863 14.838 14.5122 14.1551 15.11C13.4722 15.7078 12.5951 16.0366 11.6875 16.035C6.41484 16.035 2.125 11.7452 2.125 6.47252C2.12337 5.56494 2.45217 4.6878 3.04999 4.00493C3.64781 3.32206 4.47377 2.88015 5.37359 2.76174C5.60114 2.73396 5.83156 2.78051 6.03047 2.89445C6.22939 3.00838 6.38611 3.1836 6.47726 3.39393L7.87976 6.52498V6.53295C7.94955 6.69396 7.97837 6.86974 7.96365 7.0446C7.94894 7.21945 7.89114 7.38795 7.79543 7.53502C7.78347 7.55295 7.77086 7.56955 7.75758 7.58615L6.375 9.22506C6.87238 10.2358 7.92957 11.2837 8.95355 11.7824L10.5699 10.4071C10.5858 10.3937 10.6024 10.3813 10.6197 10.3699C10.7666 10.2719 10.9357 10.2121 11.1116 10.1958C11.2875 10.1796 11.4647 10.2075 11.6271 10.2769L11.6357 10.2809L14.7641 11.6828C14.9748 11.7736 15.1504 11.9302 15.2648 12.1291C15.3791 12.3281 15.4259 12.5587 15.3983 12.7864Z" fill="#F15533"/>
</g>
</g>
</svg>
