<svg width="34" height="35" viewBox="0 0 34 35" fill="none" xmlns="http://www.w3.org/2000/svg">
<path d="M14.1665 14.8617C14.1665 16.4265 15.435 17.695 16.9998 17.695C18.5647 17.695 19.8332 16.4265 19.8332 14.8617C19.8332 13.2968 18.5647 12.0283 16.9998 12.0283C15.435 12.0283 14.1665 13.2968 14.1665 14.8617Z" stroke="#F5F7F9" stroke-width="2.125"/>
<path d="M25.8475 21.945C27.4028 20.0047 28.3332 17.5418 28.3332 14.8617C28.3332 8.60242 23.2591 3.52832 16.9998 3.52832C10.7406 3.52832 5.6665 8.60242 5.6665 14.8617C5.6665 17.5418 6.59686 20.0047 8.15223 21.945" stroke="#F5F7F9" stroke-width="2.125" stroke-linecap="round"/>
<path d="M4.25 26.9034C4.25 24.9137 4.25 23.9189 4.67975 23.2043C4.8658 22.8949 5.10486 22.6293 5.38329 22.4226C6.02647 21.9451 6.92181 21.9451 8.7125 21.9451H25.2875C27.0782 21.9451 27.9735 21.9451 28.6167 22.4226C28.8952 22.6293 29.1342 22.8949 29.3202 23.2043C29.75 23.9189 29.75 24.9137 29.75 26.9034C29.75 28.8931 29.75 29.8879 29.3202 30.6025C29.1342 30.9119 28.8952 31.1775 28.6167 31.3842C27.9735 31.8617 27.0782 31.8617 25.2875 31.8617H8.7125C6.92181 31.8617 6.02647 31.8617 5.38329 31.3842C5.10486 31.1775 4.8658 30.9119 4.67975 30.6025C4.25 29.8879 4.25 28.8931 4.25 26.9034Z" stroke="#F5F7F9" stroke-width="2.125"/>
<path d="M15.5835 26.1951H18.4168" stroke="#F5F7F9" stroke-width="2.125" stroke-linecap="round" stroke-linejoin="round"/>
<path d="M22.5117 10.06L25.3612 7.21045" stroke="#F5F7F9" stroke-width="2.125" stroke-linecap="round" stroke-linejoin="round"/>
</svg>
