<svg width="34" height="35" viewBox="0 0 34 35" fill="none" xmlns="http://www.w3.org/2000/svg">
<g id="workflow-circle-01">
<path id="Vector" d="M12.75 13.4451C12.75 15.7923 10.8472 17.6951 8.5 17.6951C6.1528 17.6951 4.25 15.7923 4.25 13.4451C4.25 11.0979 6.1528 9.19507 8.5 9.19507C10.8472 9.19507 12.75 11.0979 12.75 13.4451Z" stroke="#F5F7F9" stroke-width="2.125"/>
<path id="Vector_2" d="M29.75 26.1951C29.75 28.5423 27.8473 30.4451 25.5 30.4451C23.1527 30.4451 21.25 28.5423 21.25 26.1951C21.25 23.8478 23.1527 21.9451 25.5 21.9451C27.8473 21.9451 29.75 23.8478 29.75 26.1951Z" stroke="#F5F7F9" stroke-width="2.125"/>
<path id="Vector_3" d="M12.75 13.4451H19.8333C22.5046 13.4451 23.8402 13.4451 24.6701 14.2749C25.5 15.1048 25.5 16.4405 25.5 19.1117V21.9451" stroke="#F5F7F9" stroke-width="2.125" stroke-linecap="round" stroke-linejoin="round"/>
<path id="Vector_4" d="M8.5 17.695V31.8617M8.5 9.19499V3.52832" stroke="#F5F7F9" stroke-width="2.125" stroke-linecap="round" stroke-linejoin="round"/>
</g>
</svg>
